<svg fill="#01A5C0" id="Capa_1" enable-background="new 0 0 512 512" height="512" viewBox="0 0 512 512" width="512" xmlns="http://www.w3.org/2000/svg"><g id="XMLID_1110_"><g id="XMLID_337_"><path id="XMLID_351_" d="m502 444.698h-198.043c-3.577-18.587-16.982-33.976-35.593-39.841-.118-.037-.197-.145-.197-.27v-37.481l62.13-47.388c7.798-5.948 12.706-14.588 13.822-24.332.417-3.64.283-7.25-.374-10.738 2.318.203 4.649.321 6.992.321 3.353 0 6.726-.217 10.099-.641 2.245 3.862 4.995 7.463 8.237 10.705 9.821 9.822 22.88 15.23 36.77 15.23s26.947-5.409 36.77-15.23l8.485-8.485c9.821-9.822 15.23-22.88 15.23-36.77 0-11.632-3.793-22.68-10.794-31.732 3.788-12.656.45-26.82-9.115-36.386-14.231-14.231-37.388-14.229-51.619 0-6.921 6.922-10.692 16.207-10.69 25.796-.859.614-1.693 1.264-2.515 1.93-4.686-11.086-11.121-21.416-19.075-30.508-3.638-4.156-9.954-4.577-14.111-.941-4.156 3.637-4.578 9.954-.941 14.111 8.351 9.544 14.672 20.745 18.558 32.783-7.88 9.353-12.182 21.06-12.182 33.433 0 2.223.154 4.421.427 6.592-15.802.908-31.289-4.373-43.31-14.947 1.12-12.661-2.576-25.722-11.281-36.128l-57.558-68.81 29.281-29.281 13.04 13.04c3.906 3.905 10.236 3.905 14.143 0 3.905-3.905 3.905-10.237 0-14.142l-47.044-47.045c-26.99-26.988-70.902-26.988-97.893 0-26.988 26.989-26.988 70.903 0 97.893l33.292 33.291c-2.024-.121-4.051-.214-6.085-.243l-44.373-16.72c-11.063-10.112-28.104-15.688-42.556-13.997-11.203-4.645-23.561-5.064-35.15-1.128-12.644 4.292-22.859 13.251-28.765 25.227-2.442 4.954-.407 10.949 4.546 13.392l71.74 35.376c.309.152 138.219 51.303 138.219 51.303 2.902 1.076 5.874 1.854 8.873 2.358l-27.411 25.812c-12.058 11.353-18.967 27.363-18.956 43.926l.042 56.892c.006 8.761 2.608 16.922 7.063 23.774h-204.128c-5.523 0-10 4.477-10 10s4.477 10 10 10h492c5.522 0 10-4.477 10-10 0-5.525-4.478-10.001-10-10.001zm-118.784-163.806c-9.367-9.367-11.701-23.145-7.002-34.711l13.255 13.255c2.645 2.644 6.547 3.592 10.106 2.457 7.628-2.429 15.874-.423 21.53 5.234l10.565 10.564-3.2 3.2c-12.477 12.476-32.779 12.477-45.254.001zm16.104-59.383c3.899-2.072 5.978-6.456 5.114-10.786-1.084-5.436.602-11.013 4.508-14.92 3.218-3.217 7.442-4.825 11.669-4.825 4.225 0 8.451 1.608 11.667 4.824 5.108 5.109 6.289 13.118 2.871 19.475-2.071 3.853-1.398 8.605 1.661 11.73.065.066.145.145.223.221 5.995 6.035 9.296 14.039 9.296 22.55 0 4.171-.798 8.218-2.312 11.974l-8.769-8.768c-9.452-9.452-22.631-13.649-35.558-11.613l-11.104-11.105 3.115-3.115c2.257-2.256 4.821-4.155 7.619-5.642zm-293.134-3.23-52.289-25.785c3.162-3.088 7-5.454 11.31-6.917 7.585-2.574 15.721-2.042 22.903 1.5 1.993.984 4.258 1.273 6.436.827 7.304-1.498 16.796.728 24.022 5.263zm18.418 7.869 11.43-23.18 39.44 14.861c1.127.424 2.322.642 3.526.642 21.219 0 41.913 5.997 59.846 17.342 1.659 1.05 3.509 1.551 5.337 1.551 3.314 0 6.558-1.647 8.46-4.655 2.953-4.667 1.564-10.845-3.104-13.797-8.603-5.443-17.752-9.826-27.257-13.128l-54.491-54.491c-19.191-19.191-19.191-50.417 0-69.608s50.418-19.19 69.607 0l19.861 19.862-28.201 28.201c-3.633-2.774-8.822-2.776-12.475.278-4.236 3.543-4.798 9.85-1.254 14.086l69.01 82.499c9.934 11.876 8.944 29.554-2.253 40.247-8.1 7.733-20.116 10.216-30.617 6.323zm102.46 194.762-.042-56.892c-.007-11.067 4.609-21.765 12.667-29.352l58.179-54.784c2.949-2.777 6.729-4.274 10.738-4.274.335 0 .672.011 1.01.032 4.38.272 8.333 2.286 11.13 5.667 2.75 3.325 3.994 7.516 3.503 11.802-.49 4.287-2.65 8.088-6.081 10.705l-66.066 50.39c-2.48 1.892-3.935 4.832-3.935 7.951v42.431c0 8.896 5.7 16.671 14.186 19.345 10.185 3.209 17.847 11.037 20.993 20.766h-32.48c-13.116.001-23.794-10.67-23.802-23.787z"></path><path id="XMLID_362_" d="m323.359 163.464c2.631 0 5.21-1.07 7.07-2.93s2.93-4.44 2.93-7.07c0-2.64-1.069-5.21-2.93-7.08-1.86-1.86-4.439-2.92-7.07-2.92-2.63 0-5.21 1.06-7.069 2.92-1.86 1.87-2.931 4.44-2.931 7.08 0 2.63 1.07 5.2 2.931 7.07 1.859 1.859 4.439 2.93 7.069 2.93z"></path></g></g></svg>