<svg fill="#01A5C0" id="Capa_1" enable-background="new 0 0 512 512" height="512" viewBox="0 0 512 512" width="512" xmlns="http://www.w3.org/2000/svg"><g id="XMLID_1800_"><g id="XMLID_192_"><path id="XMLID_224_" d="m502 435.183h-42.295c1.11-3.13 1.72-6.494 1.72-10 0-16.542-13.458-30-30-30h-56.403l1.854-31.968c6.719-1.24 13.854-3.194 18.949-6.261 12.422-7.479 23.302-24.944 29.587-36.683 7.844 4.569 16.784 7.015 26.103 7.015 13.89 0 26.948-5.409 36.77-15.23l8.485-8.485c9.821-9.822 15.23-22.88 15.23-36.77 0-11.632-3.793-22.68-10.794-31.732 3.788-12.656.45-26.82-9.114-36.386-14.232-14.23-37.387-14.23-51.619 0-6.922 6.922-10.693 16.207-10.691 25.795-2.327 1.664-4.518 3.52-6.551 5.554l-8.485 8.485c-4.999 4.999-8.848 10.841-11.43 17.201-22.313-5.357-47.008-5.937-73.571-1.702l-42.298 6.74c-2.398-6.114-5.71-11.785-9.948-16.914-12.922-15.644-32.212-23.939-52.265-22.672-5.615-4.42-11.325-9.07-17.017-13.861-4.225-3.555-10.534-3.014-14.09 1.212s-3.014 10.534 1.212 14.091c6.947 5.847 13.926 11.496 20.742 16.789 2.108 1.639 4.785 2.365 7.433 2.018 14.72-1.923 29.132 3.74 38.566 15.161 3.627 4.39 6.275 9.364 7.912 14.809l-19.085 48.611c-26.517-17.151-87.803-66.541-98.14-78.883l-78.019-101.885 20.38-16.835c10.706 12.635 22.064 25.267 33.878 37.65 1.965 2.061 4.599 3.098 7.237 3.098 2.48 0 4.965-.917 6.901-2.764 3.996-3.812 4.146-10.143.334-14.139-13.521-14.174-26.431-28.672-38.405-43.11-5.853-13.94-19.245-26.228-33.264-30.65-8.315-8.829-19.416-14.274-31.6-15.435-13.296-1.269-26.282 2.72-36.577 11.223-4.258 3.518-4.858 9.82-1.341 14.078l50.827 61.531 83.892 109.555c.075.098.151.193.229.288 6.321 7.652 28.603 26.745 52.189 45.451l-19.006 88.405h-80.407c-1.057 0-2.074.167-3.03.47-13.562-2.68-29.22.067-40.305 7.242-26.017 1.713-46.671 23.432-46.68 49.89-.001 2.652 1.052 5.196 2.928 7.073 1.875 1.876 4.419 2.93 7.072 2.93h492c5.522 0 10-4.478 10-10s-4.477-10-10-10zm-443.411-347.471c1.416 1.714 3.362 2.907 5.531 3.392 7.278 1.625 15.024 7.548 19.757 14.646l-21.587 17.832-37.12-44.938c11.597-4.228 25.12-.977 33.419 9.068zm392.926 219.574c-8.548 0-16.583-3.328-22.627-9.373-6.044-6.044-9.373-14.08-9.373-22.627 0-4.216.813-8.306 2.359-12.095l13.266 13.267c2.645 2.645 6.546 3.593 10.107 2.457 7.624-2.431 15.874-.425 21.531 5.234l10.564 10.564-3.2 3.2c-6.044 6.045-14.079 9.373-22.627 9.373zm-6.523-68.756c3.898-2.072 5.977-6.456 5.113-10.786-1.084-5.435.602-11.012 4.51-14.919 3.217-3.217 7.441-4.825 11.667-4.825s8.45 1.608 11.667 4.825c5.109 5.108 6.29 13.117 2.871 19.474-2.125 3.953-1.357 8.836 1.877 11.945 6 6.035 9.303 14.042 9.303 22.557 0 4.171-.798 8.218-2.313 11.974l-8.767-8.768c-9.452-9.451-22.633-13.646-35.56-11.612l-11.103-11.105 3.117-3.117c2.255-2.256 4.818-4.155 7.618-5.643zm-112.1 35.235c24.296-3.871 46.663-3.32 66.625 1.616.02 11.413 3.699 22.255 10.471 31.202-6.033 12.012-16.065 28.17-24.478 33.236-1.347.811-3.824 1.775-7.433 2.685l.854-14.731c.542-9.335-2.828-18.588-9.245-25.389s-15.46-10.701-24.811-10.701c-18.811 0-34.114 15.303-34.114 34.113v16.551c-15.165-2.735-29.439-7.097-42.093-12.866l19.049-48.518zm-12.06 161.418h-87.988c4.454-5.473 7.879-11.859 9.913-18.902l19.56-67.725c14.673 6.463 31.114 11.248 48.445 14.088v42.458c0 11.281 3.752 21.699 10.07 30.081zm-292.038-11.214c5.665-5.666 13.191-8.785 21.195-8.785.004 0 .009-.001.014 0 2.222 0 4.38-.74 6.134-2.103 5.896-4.58 15.408-6.776 23.876-5.904l-.009 28.006h-58.3c1.471-4.171 3.87-7.993 7.09-11.214zm71.21 11.214.009-27.604h78.487c4.713 0 8.786-3.291 9.777-7.898l18.676-86.872c14.471 11.033 28.041 20.785 37.231 26.448l-20.643 71.475c-4.158 14.397-17.528 24.451-32.513 24.451zm260.84 0c-16.587 0-30.081-13.494-30.082-30.081v-79.306c0-7.782 6.332-14.113 14.114-14.113 3.925 0 7.57 1.572 10.265 4.427 2.693 2.855 4.052 6.585 3.824 10.504l-4.523 77.99c-.159 2.748.821 5.44 2.711 7.442 1.889 2.002 4.52 3.137 7.273 3.137h67c5.514 0 10 4.486 10 10s-4.486 10-10 10z"></path><path id="XMLID_603_" d="m168.22 194.982c2.63 0 5.21-1.069 7.07-2.93 1.86-1.86 2.93-4.44 2.93-7.07s-1.07-5.21-2.93-7.069c-1.86-1.86-4.44-2.931-7.07-2.931s-5.21 1.07-7.07 2.931c-1.86 1.859-2.93 4.439-2.93 7.069s1.07 5.21 2.93 7.07c1.86 1.861 4.44 2.93 7.07 2.93z"></path></g></g></svg>