<svg fill="#01A5C0" height="512pt" viewBox="0 0 512.00018 512" width="512pt" xmlns="http://www.w3.org/2000/svg"><path d="m464.558594 406.011719c0 2.628906 1.070312 5.207031 2.933594 7.070312 1.859374 1.867188 4.4375 2.929688 7.066406 2.929688 2.632812 0 5.210937-1.0625 7.070312-2.929688 1.859375-1.863281 2.929688-4.433593 2.929688-7.070312 0-2.632813-1.066406-5.210938-2.929688-7.070313-1.859375-1.859375-4.4375-2.929687-7.070312-2.929687-2.628906 0-5.207032 1.070312-7.066406 2.929687-1.863282 1.859375-2.933594 4.4375-2.933594 7.070313zm0 0"></path><path d="m511.613281 499.253906-16.996093-59.46875c-1.519532-5.3125-7.050782-8.382812-12.363282-6.867187-5.3125 1.519531-8.386718 7.054687-6.867187 12.363281l13.355469 46.71875h-465.484376l46.882813-164h69.066406l-17.488281 10.871094c-8.378906 5.210937-13.382812 14.214844-13.382812 24.082031 0 8.160156 3.441406 15.734375 9.375 21.0625-11.761719 11.914063-15.859376 30.109375-9.144532 46.4375 4.371094 10.628906 12.625 18.90625 23.242188 23.308594 5.292968 2.191406 10.855468 3.289062 16.414062 3.289062 5.59375 0 11.183594-1.109375 16.5-3.324219l84.460938-35.210937 98.539062 36.734375c5.066406 1.890625 10.246094 2.785156 15.335938 2.785156 17.136718 0 33.203125-10.179687 40.125-27.015625 6.769531-16.460937 2.707031-34.789062-9.046875-46.886719 6.019531-5.332031 9.511719-12.957031 9.511719-21.179687 0-9.867187-5.003907-18.871094-13.382813-24.082031l-17.488281-10.871094h69.082031l10.78125 37.710938c1.253906 4.390624 5.257813 7.253906 9.609375 7.253906.90625 0 1.832031-.125 2.75-.390625 5.3125-1.515625 8.386719-7.050781 6.867188-12.359375l-12.851563-44.960938c-1.226563-4.292968-5.152344-7.253906-9.613281-7.253906h-95.691406l-5.441407-60.085938c-2.375-26.222656-22.214843-47.289062-48.25-51.230468l-9.675781-1.464844c7.917969-8.4375 12.777344-19.769531 12.777344-32.21875v-6.261719c0-25.984375-21.140625-47.128906-47.132813-47.128906-25.988281 0-47.128906 21.144531-47.128906 47.128906v6.261719c0 12.449219 4.863281 23.78125 12.777344 32.21875l-9.675781 1.464844c-26.03125 3.941406-45.871094 25.007812-48.246094 51.230468l-5.441406 60.085938h-95.675782c-4.464844 0-8.386718 2.960938-9.613281 7.253906l-52.597656 184c-.863281 3.015625-.261719 6.261719 1.628906 8.769532 1.890625 2.503906 4.847656 3.976562 7.984375 3.976562h492c3.136719 0 6.09375-1.472656 7.984375-3.976562 1.886719-2.507813 2.492187-5.753907 1.628906-8.769532zm-282.753906-342.515625c0-14.960937 12.171875-27.132812 27.132813-27.132812 14.960937 0 27.132812 12.171875 27.132812 27.132812v6.257813c0 14.960937-12.167969 27.128906-27.128906 27.132812 0 0-.003906 0-.007813 0-14.957031-.003906-27.128906-12.171875-27.128906-27.132812zm-45.226563 92.980469c1.542969-17.023438 14.425782-30.703125 31.324219-33.261719l41.035157-6.214843 41.035156 6.214843c16.902344 2.558594 29.78125 16.234375 31.324218 33.261719l6.058594 66.90625c.667969 7.351562 4.808594 14.0625 11.074219 17.960938l34.21875 21.269531c2.472656 1.535156 3.945313 4.191406 3.945313 7.097656 0 4.164063-2.730469 6.332031-3.90625 7.070313-1.070313.679687-3.789063 2-7.117188.847656l-21.082031-10.050782-.617188-.296874c-.011719-.003907-.023437-.007813-.035156-.015626l-29.109375-13.878906c-7.480469-3.566406-12.304688-11.226562-12.285156-19.507812l.171875-64.558594c.015625-5.519531-4.449219-10.011719-9.972657-10.023438-.011718 0-.019531 0-.027343 0-5.511719 0-9.984375 4.460938-10 9.972657l-.171875 64.5625c-.035156 15.972656 9.257812 30.734375 23.675781 37.609375l29.769531 14.191406 20.082032 9.640625c.578124.277344 1.164062.53125 1.753906.769531l8.277344 3.945313c11.269531 5.375 16.382812 18.632812 11.632812 30.183593-4.855469 11.800782-18.023438 17.554688-29.976562 13.097657l-76.84375-28.648438h27.5625c5.519531 0 10-4.476562 10-10 0-5.523437-4.480469-10-10-10h-32.695313c-1.320313 0-2.628906.261719-3.847656.769531l-111.859375 46.632813c-5.660156 2.359375-11.894532 2.367187-17.5625.019531-5.664063-2.347656-10.066406-6.761718-12.398438-12.433594-4.621094-11.234374.347656-24.128906 11.3125-29.355468l8.863282-4.226563c.578124-.234375 1.152343-.480469 1.71875-.75l20.703124-9.9375 29.171876-13.90625c14.398437-6.867187 23.691406-21.609375 23.675781-37.5625l-.078125-64.371093c-.007813-5.519532-4.480469-9.988282-10-9.988282-.003906 0-.007813 0-.011719 0-5.523437.007813-9.996094 4.488282-9.988281 10.011719l.078125 64.371094c.007812 8.273437-4.8125 15.921875-12.28125 19.484375l-50.878907 24.253906c-3.324218 1.148438-6.035156-.171875-7.109374-.847656-1.171876-.738282-3.90625-2.90625-3.90625-7.070313 0-2.910156 1.476562-5.5625 3.945312-7.097656l34.21875-21.269531c6.269531-3.898438 10.410156-10.613282 11.074219-17.964844zm0 0"></path><path d="m256.125 65.910156c5.523438 0 10-4.476562 10-10v-45.910156c0-5.523438-4.476562-10-10-10s-10 4.476562-10 10v45.910156c0 5.523438 4.476562 10 10 10zm0 0"></path><path d="m323.628906 119.609375c0 5.519531 4.476563 10 10 10h32.105469c5.519531 0 10-4.480469 10-10 0-5.523437-4.480469-10-10-10h-32.105469c-5.523437 0-10 4.476563-10 10zm0 0"></path><path d="m306.042969 79.691406c2.558593 0 5.117187-.976562 7.070312-2.929687l23.574219-23.574219c3.90625-3.90625 3.90625-10.238281 0-14.140625-3.90625-3.90625-10.238281-3.90625-14.144531 0l-23.570313 23.570313c-3.90625 3.90625-3.90625 10.238281 0 14.144531 1.953125 1.953125 4.511719 2.929687 7.070313 2.929687zm0 0"></path><path d="m355.730469 30.011719c2.628906 0 5.199219-1.070313 7.070312-2.929688 1.859375-1.863281 2.929688-4.441406 2.929688-7.070312 0-2.640625-1.070313-5.210938-2.929688-7.070313s-4.441406-2.929687-7.070312-2.929687c-2.640625 0-5.21875 1.070312-7.082031 2.929687-1.859376 1.859375-2.917969 4.429688-2.917969 7.070313 0 2.628906 1.058593 5.207031 2.917969 7.070312 1.871093 1.859375 4.441406 2.929688 7.082031 2.929688zm0 0"></path><path d="m198.519531 76.144531c1.953125 1.953125 4.511719 2.929688 7.074219 2.929688 2.558594 0 5.117188-.976563 7.070312-2.929688 3.902344-3.902343 3.902344-10.234375 0-14.140625l-21.085937-21.082031c-3.902344-3.90625-10.234375-3.90625-14.140625 0-3.90625 3.902344-3.90625 10.234375 0 14.140625zm0 0"></path><path d="m156.179688 29.660156c2.628906 0 5.210937-1.070312 7.070312-2.929687s2.929688-4.441407 2.929688-7.070313-1.070313-5.210937-2.929688-7.070312-4.441406-2.929688-7.070312-2.929688c-2.628907 0-5.210938 1.070313-7.070313 2.929688s-2.929687 4.441406-2.929687 7.070312 1.070312 5.210938 2.929687 7.070313 4.441406 2.929687 7.070313 2.929687zm0 0"></path><path d="m146.519531 129.609375h28.480469c5.523438 0 10-4.480469 10-10 0-5.523437-4.476562-10-10-10h-28.480469c-5.523437 0-10 4.476563-10 10 0 5.519531 4.476563 10 10 10zm0 0"></path></svg>