<!--?xml version="1.0"?-->
<svg fill="#01A5C0" xmlns="http://www.w3.org/2000/svg" viewBox="0 0 512 512" width="512" height="512"><g id="Outline"><path d="M464.905,457.259l-20.511-6.913-6.21-6.279,8.824-116a56.694,56.694,0,0,0-5.7-29.391A55.276,55.276,0,0,0,391.53,267.6c-1.526,0-95.22,7.235-95.22,7.235V226.284c3.777-2.785,9.508-7.821,12.65-15.243a40.229,40.229,0,0,0-.777-32.052c-6.95-15.453-20.764-20.142-35.75-25.194L255.84,137.03V117.64h2.12a18.2,18.2,0,0,0,18.12-18.23V88.785l6.839-3.8a8,8,0,0,0,3.146-10.8L276.91,57.273V54.89c0-17.8-12.845-34.042-29.877-37.776-17.268-3.785-34.8-.934-48.114,7.821-11.111,7.306-18.331,20.449-19.569,34.582l-4.874,1.642a8,8,0,0,0-5.446,7.581v51.13a22.532,22.532,0,0,1-22.34,22.67h-7.35l4.4-8.9a8.006,8.006,0,0,0,.828-3.546V68.74a22.543,22.543,0,0,1,22.35-22.68v-16a38.559,38.559,0,0,0-38.35,38.68v59.481l-9.282,18.773a8,8,0,0,0,7.172,11.546h20.23a38.55,38.55,0,0,0,38.34-38.67V90.394a75.308,75.308,0,0,0,13.551,21.5L192.6,136.05a28.272,28.272,0,0,0-7.5,6.235l-54.478,64.25L80.161,259.1l-6.44-6.4a20.659,20.659,0,0,0-34.242,20.939l4.969,15.547L38.5,300.108a8,8,0,0,0-.57,6.33l10.116,30.678a8.108,8.108,0,0,0,11.891,4.244L106.256,311.9a8.035,8.035,0,0,0,1.256-.988l3.339-3.216A14.034,14.034,0,0,1,112,313.279c0,5.742-4.381,10.835-7.506,15.5a8,8,0,0,0-.655,7.725l17.4,38.818L91.984,385.458,80.332,348.977l-15.24,4.869,32.417,101.5A58,58,0,0,0,152.82,496a59.075,59.075,0,0,0,45.554-22.241l86.81-110.651c.069-.089.137-.18.2-.272a132.5,132.5,0,0,0,35.058-6.755l61.016-20.562v28.148h16V324.38a8,8,0,0,0-10.555-7.581l-71.576,24.122a116.457,116.457,0,0,1-21.664,5.072,59.6,59.6,0,0,0,2.645-17.543V290.882s94.133-7.282,95.22-7.282a39.373,39.373,0,0,1,35.438,22.165,40.688,40.688,0,0,1,4.086,21.089l-5.427,71.338H397.46V379.667h-16V476.11A19.848,19.848,0,0,0,401.22,496h57.41a19.9,19.9,0,0,0,6.275-38.741ZM195.666,67.638c-1-11.638,1.9-22.661,12.045-29.335,7.906-5.2,18.025-7.513,28.557-6.66-2.772,3.8-6.563,9-11.779,16.144a18.177,18.177,0,0,0-11.875,1.065,18.646,18.646,0,0,0-10.506,12.624A19.148,19.148,0,0,0,206.9,79.334l2.875,2.957L205.013,94.1C205.263,93.482,196.467,76.972,195.666,67.638Zm11.723,42-.009,0h0ZM57.624,262.95a4.636,4.636,0,0,1,4.818,1.1l5.253,5.217-10.608,6.91-2.367-7.408a4.661,4.661,0,0,1,2.9-5.815ZM96.99,298.83,60.024,322.344l-5.813-17.628L60.6,292.981l23.815-15.512a7.945,7.945,0,0,0,1.4-1.162l56.526-58.868q.171-.179.331-.367l54.639-64.439a12.133,12.133,0,0,1,9.258-4.316h21.042v-16h-17.6l5-20.206,11.549-28.675a8,8,0,0,0-1.686-8.566l-6.507-6.691a3.036,3.036,0,0,1-.73-2.84,2.692,2.692,0,0,1,1.511-1.882,2.23,2.23,0,0,1,2.017.068l2.289,1.209a8,8,0,0,0,10.2-2.359l18.531-25.4A23.56,23.56,0,0,1,260.91,54.89c0,2.641-.335,5.816.965,8.219l6.354,11.735-4.038,2.245a8,8,0,0,0-4.111,6.991V99.41a2.179,2.179,0,0,1-2.12,2.23H247.84a8,8,0,0,0-8,8v30.68a8,8,0,0,0,2.314,5.628l17.8,17.979c-1.466,19.316-16.544,32.476-43.92,38.337q-1.139-2-2.165-4.061l9.8-11.893-12.346-10.178-50.287,61ZM120.252,334c-.331-.738,4.762-7.687,5.354-9.007A28.832,28.832,0,0,0,128,313.28a30.254,30.254,0,0,0-5.289-17.011l49.757-47.93a8.1,8.1,0,0,0,.623-.673l29.8-36.146c.807,1.367,26.09,42.277,26.09,42.277l-8.185,24.814-5.106,3.874a71.691,71.691,0,0,0-26.931,71.132L154.139,409.6ZM280.31,328.45a43.6,43.6,0,0,1-6.25,22.488c-.472.8-1.007,1.622-1.593,2.458L185.784,463.885A43.128,43.128,0,0,1,152.82,480a42.056,42.056,0,0,1-40.069-29.523L96.854,400.7l30.955-10.727,17.9,39.935a8,8,0,0,0,6.77,4.71q.267.018.531.018a8,8,0,0,0,6.8-3.793l44.26-71.58a8,8,0,0,0,.961-6.128,55.743,55.743,0,0,1,20.32-57.906l4.946-3.753H280.31Zm0-52.97H238.673l6.655-20.174a8,8,0,0,0-.758-6.657l-5.036-8.3H280.31Zm4.4-60.62a8.55,8.55,0,0,0-4.4,7.26v2.231H229.825l-4.727-7.79c35.383-9.238,46.819-29.053,49.947-45l6.141,2.07a21.489,21.489,0,0,1,12.433,11.908C298.706,196.891,294.979,208.09,284.707,214.86ZM458.63,480H401.22a3.83,3.83,0,0,1-3.76-3.89V414.192h26.95l-2.457,32.3a8,8,0,0,0,2.289,6.233l10.111,10.22a7.989,7.989,0,0,0,3.131,1.955l22.306,7.518a3.781,3.781,0,0,1,1.875,1.408,3.942,3.942,0,0,1,.725,2.283A3.831,3.831,0,0,1,458.63,480Z"></path></g></svg>
