<svg fill="#01A5C0" id="Layer_1" enable-background="new 0 0 512.03 512.03" height="512" viewBox="0 0 512.03 512.03" width="512" xmlns="http://www.w3.org/2000/svg"><path d="m504.03 491.056h-72.33c-2.901-11.817-12.1-21.354-24.334-24.412l-17.394-4.351 21.986-106.629c4.219-20.488-7.407-41.35-27.533-48.306-49.191-17.071-32.366-9.513-77.616-19.847 15.746-9.571 37.436-23.267 44.205-30.036 7.928-7.939 32.056-32.1 32.056-55.209 0-6.514-1.968-13.692-5.856-21.401l126.309-126.309c5.486-5.485 8.507-12.779 8.507-20.537 0-25.712-31.335-38.783-49.58-20.537-3.125 3.124-3.125 8.189 0 11.313 3.124 3.124 8.189 3.124 11.313 0 8.198-8.196 22.267-2.321 22.267 9.223 0 3.484-1.357 6.759-3.82 9.223l-147.202 147.203c-5.055 5.054-1.406 13.657 5.657 13.657 4.339 0 5.598-2.284 14.425-11.111 1.293 3.432 1.98 6.568 1.98 9.276 0 10.941-9.211 25.712-27.417 43.943-6.478 6.478-35.903 24.698-55.565 36.252l-27.065-3.383c-4.386-.553-8.382 2.561-8.93 6.946-.548 4.384 2.562 8.382 6.946 8.93l29.298 3.663c68.04 16.684 41.267 5.442 94.976 23.904 12.309 4.283 19.607 17.144 16.978 29.913l-10.174 49.342h-26.181l4.224-37.023c.508-4.456-2.751-8.468-7.226-8.874-95.479-8.662-86.528 1.854-119.291-9.551-2.148-.725-5.408-1.993-7.694-3.176-19.558-10.124-23.764-39.442-17.584-55.925 7.576-5.362 15.124-11.567 22.44-18.456 3.217-3.029 3.369-8.092.34-11.309-3.029-3.216-8.091-3.368-11.309-.34-8.25 7.768-18.562 15.751-19.215 15.902-2.014.469-2.574 1.13-10.534 6.359-19.891 13.07-16.033 10.53-119.188 97.237l-62.478 41.684c-10.938 7.297-15.259 20.957-10.508 33.218 12.951 33.42 12.932 34.426 16.538 39.534h-10.421c-4.418 0-8 3.582-8 8s3.582 8 8 8h496c4.418 0 8-3.582 8-8s-3.582-8-8-8zm-310.242-192.21c-1.285 20.232 6.39 42.896 23.113 54.986-29.749 13.842-69.667 29.726-118.632 54.979l-9.043-23.333c79.26-66.634 92.507-78.186 104.562-86.632zm-172.487 132.768 54.543-36.39 8.365 21.584-37.132 23.648c-2.724 1.735-4.138 4.938-3.584 8.119l7.381 42.417c-9.285.671-18.336-4.72-21.871-13.842l-12.171-31.409c-2.021-5.215-.183-11.024 4.469-14.127zm38.869 19.473c36.376-23.166 41.818-29.002 132.527-68.893 16.355-7.192 30.623-13.477 43.023-19.658 32.847 10.431 30.505 1.626 111.611 8.558-11.643 102.043-8.743 82.186-13.539 101.369-1.583 6.331-.911 12.848 1.804 18.592h-268.471zm300.63 39.969c-7.698 0-13.357-7.231-11.486-14.711 5.128-20.513 2.898-6.896 8.794-58.568h24.707l-10.062 48.8c-.866 4.2 1.733 8.336 5.894 9.376l24.838 6.213c4.987 1.247 9.008 4.559 11.247 8.89z"></path><path d="m277.991 85.77c1.135 15.721 7.58 30.286 18.305 41.854-7.168 29.379-18.237 56.437-32.949 80.476-2.307 3.769-1.122 8.693 2.647 11 3.791 2.321 8.707 1.098 11-2.647 14.289-23.347 25.329-49.328 32.893-77.382 4.008 2.601 8.253 4.784 12.653 6.521l4.46 3.342-11.75 11.75c-5.055 5.054-1.406 13.657 5.657 13.657 2.047 0 4.095-.781 5.657-2.343 83.129-83.129-65.023 65.023 102.561-102.561 15.081-15.081 23.387-35.132 23.387-56.46 0-4.418-3.582-8-8-8s-8 3.582-8 8c0 17.054-6.641 33.088-18.7 45.147l-34.74 34.74c0-18.579 1.367-29.18-6.748-43.47-13.754-24.239-44.893-33.165-70.028-20.519-12.037-20.573-43.376-17.762-51.327 4.748l-5.366 15.243c-6.598 18.668 8.179 38.036 28.388 36.904zm81.85-32.341c-7.52 10.488-19.666 16.642-32.668 16.818-11.677.163-10.89 16.019-.573 16.019 15.003 0 29.512-5.853 40.155-16.353.426 3.116.315 1.134.315 38.949l-25.346 25.346c-10.433-1.422-19.873-5.63-27.484-11.693l6.733-16.709c1.805-4.48-.74-9.664-5.652-10.783-3.765-.86-7.703 1.107-9.191 4.803l-3.851 9.56c-5.498-8.479-8.49-18.282-8.49-28.642 0-1.018-.113-.743.565-1.293 4.26-3.451 7.182-7.894 8.764-12.355 5.362-15.219 6.428-17.5 6.828-21.901 16.039-10.445 38.064-7.16 49.895 8.234zm-95.151.757 5.366-15.244c1.745-4.938 6.532-8.039 11.667-8.039 8.399 0 14.394 7.918 11.672 15.637-5.213 14.798-5.557 18.642-10.675 21.572-10.226 5.769-21.607-3.796-18.03-13.926z"></path><path d="m246.055 245.647c3.436 2.762 8.501 2.193 11.275-1.258.407-.506.814-1.013 1.221-1.529 2.736-3.469 2.142-8.499-1.327-11.235-3.469-2.737-8.5-2.143-11.235 1.327-.376.477-.752.944-1.185 1.482-2.768 3.444-2.192 8.444 1.251 11.213z"></path></svg>