<svg fill="#01A5C0" height="512" viewBox="0 0 512 512" width="512" xmlns="http://www.w3.org/2000/svg"><g id="outline"><path d="m411.445 277.637-13.878-76.325a21.06 21.06 0 0 0 -14.4-16.321l10.352-25.891a13.921 13.921 0 0 0 -4.254-16.131l-35.684-28.548-55-75.631a35.9 35.9 0 0 0 -59.93 2.821l-51.543 18.489a13.979 13.979 0 0 0 -9.068 15.56l.732 4.241-9.216 13.24a18.03 18.03 0 0 0 1.006 21.878l9.181 10.9v28.39l-20.911 16.264-28.932 22.508a59.719 59.719 0 0 0 -11.112 82.972l5.3 7.065c.656 4.852 1.486 9.718 2.471 14.5a215.117 215.117 0 0 0 28.3 70.382h-69.17a36.5 36.5 0 0 0 -31.395 18.007l-1.315 2.248a36.322 36.322 0 0 0 9.728 47.579 157.846 157.846 0 0 0 47.027 23.933 20.793 20.793 0 0 0 20.683 18.433h49.964a48.063 48.063 0 0 0 30.77-11.167l.088-.076a73.907 73.907 0 0 0 39.071-12.886 262.829 262.829 0 0 0 106.01 29.088l65.823 3.657q1.464.081 2.918.082a50.967 50.967 0 0 0 38.633-17.616 51.53 51.53 0 0 0 8.262-54.426zm-29.62-73.464 12.706 69.884-21.3 5.324-11.265-7.511a13.981 13.981 0 0 1 -5.348-16.516l5.587-10.872a86.556 86.556 0 0 0 9.533-39.4 5.082 5.082 0 0 1 10.082-.909zm-88.014-26.9a44.751 44.751 0 0 1 -8.555 38.032 44.27 44.27 0 0 1 -34.74 16.7h-14.526l7.185-28.743a102.916 102.916 0 0 0 16.568-56.1v-8.939l17.589-29.323 26.158 26.159a37.865 37.865 0 0 0 -9.679 42.212zm-43.295 70.727a60.189 60.189 0 0 0 47.234-22.7 60.832 60.832 0 0 0 11.45-52.461 8.114 8.114 0 0 0 -.4-1.193 21.845 21.845 0 0 1 5.259-24.56l19.284 25.714a8.032 8.032 0 0 0 1.6 1.6l24.693 18.519a20.945 20.945 0 0 0 -3.893 12.163 70.5 70.5 0 0 1 -7.763 32.086l-5.78 11.244c-.115.224-.219.452-.312.686a29.979 29.979 0 0 0 11.212 36.085l11.063 7.375 3.713 37.13a220.734 220.734 0 0 0 20.15 72.639l-74.605-24.869-5.1-10.205a84.73 84.73 0 0 0 -61.668-45.547l-6.427-1.071-12.18-16.24a26.547 26.547 0 0 1 -4.535-22.453l8-32 .486-1.94zm-67.828-145.721 11.092-15.934a8 8 0 0 0 1.318-5.932l-1.006-5.822 34.766-12.468-33.115 70.96v-10.083a8 8 0 0 0 -1.881-5.153l-11.062-13.137a2 2 0 0 1 -.112-2.431zm-10.945 78.521 19.4-15.087a58.256 58.256 0 0 0 16.95-21.255l43.38-92.958a19.922 19.922 0 0 1 34.164-3.3l55.636 76.5a8 8 0 0 0 1.473 1.542l35.365 28.293-9.919 24.8-22.734-17.051-23.315-31.084c-.026-.035-.06-.065-.086-.1a8.352 8.352 0 0 0 -.637-.735l-.02-.022-.012-.012-.035-.036-39.953-39.952a8 8 0 0 0 -12.517 1.541l-24 40a8 8 0 0 0 -1.14 4.116v11.155a86.992 86.992 0 0 1 -14.656 48.407 8.006 8.006 0 0 0 -1.1 2.5l-10.487 41.938h-19.334a26.423 26.423 0 0 1 -26.423-26.422zm-32.062 98.206a7.982 7.982 0 0 0 -1.538-3.808l-6.56-8.747a43.72 43.72 0 0 1 8.135-60.743l16.025-12.464v20.332a42.423 42.423 0 0 0 42.423 42.424h15.334l-4.283 17.131-68.437 13.459c-.416-2.526-.78-5.059-1.099-7.582zm4.339 23.251 62.7-12.331a42.487 42.487 0 0 0 8.517 24.066l9.24 12.319-52.687 38.424a199.242 199.242 0 0 1 -27.77-62.476zm-29.042 139.908-1.163 2.113a141.878 141.878 0 0 1 -41.577-21.3 20.344 20.344 0 0 1 -5.448-26.649l1.315-2.248a20.443 20.443 0 0 1 17.584-10.081h80.247c3.49 4.571 7.174 9.033 11.008 13.293a260.359 260.359 0 0 0 27.178 26.12 25.729 25.729 0 0 0 -12.429-1.628l-24.441 2.849h-22.614a33.857 33.857 0 0 0 -29.66 17.531zm89.356 5.958a9.626 9.626 0 0 1 -3.444 6.63 32.035 32.035 0 0 1 -20.509 7.443h-49.964a4.848 4.848 0 0 1 -4.247-7.185l2.83-5.131a17.856 17.856 0 0 1 15.643-9.246h23.079a7.974 7.974 0 0 0 .926-.054l24.9-2.9a9.7 9.7 0 0 1 10.788 10.445zm15.906 1.692c.011-.118.028-.235.038-.353a25.488 25.488 0 0 0 -4.678-17.062q9.039 6.685 18.659 12.588a58 58 0 0 1 -14.019 4.827zm231.389 8.954a35.115 35.115 0 0 1 -28.6 12.068l-65.823-3.656a246.633 246.633 0 0 1 -103.761-29.547l-.044-.024a243.691 243.691 0 0 1 -64.566-51.02c-2.606-2.895-5.141-5.888-7.584-8.949l56.49-41.2 6.272 1.046a68.676 68.676 0 0 1 49.987 36.921l6.584 13.169a8 8 0 0 0 4.626 4.013l96 32a8 8 0 0 0 9.686-11.167l-6.423-12.848a204.828 204.828 0 0 1 -20.68-71.475l-3.4-34.012 18.752-4.688 58.172 131.911a35.471 35.471 0 0 1 -5.688 37.458z"></path></g></svg>