<svg fill="#01A5C0" height="512" viewBox="0 0 60 60" width="512" xmlns="http://www.w3.org/2000/svg"><g id="021---Yoga" transform="translate(-1)"><path id="Shape" d="m51.5 45c-3.0375661 0-5.5 2.4624339-5.5 5.5s2.4624339 5.5 5.5 5.5 5.5-2.4624339 5.5-5.5c-.0033068-3.0361953-2.4638047-5.4966932-5.5-5.5zm0 9c-1.9329966 0-3.5-1.5670034-3.5-3.5s1.5670034-3.5 3.5-3.5 3.5 1.5670034 3.5 3.5c0 .9282577-.3687489 1.8184964-1.0251263 2.4748737-.6563773.6563774-1.546616 1.0251263-2.4748737 1.0251263z"></path><path id="Shape" d="m60.408 47.208c-.21-.45-5.962-12.817-6.122-13.106-1.7219612-3.949241-6.1281288-5.9835046-10.250883-4.7326838-4.1227542 1.2508207-6.6558102 5.3904062-5.893117 9.6306838h-26.142c-1.6568542 0-3-1.3431458-3-3 .00010101-.4871838-.35089569-.903541-.8310784-.9858368-.48018272-.0822959-.94979041.1934225-1.1119216.6528368-6.401 18.138-6.057 17.067-6.057 17.333v2c.00330612 2.7600532 2.23994685 4.9966939 5 5 48.327 0 44.792.012 45.1-.02 2.5855042.1120919 5.1046188-.8366893 6.973783-2.6265557 1.8691643-1.7898664 2.9261911-4.2655114 2.926217-6.8534443-.0056275-1.1232973-.2059258-2.2371183-.592-3.292zm-13.908-16.208c2.6127986-.0006384 4.9720184 1.5632458 5.989 3.97.044.1 3.375 7.182 3.326 7.077-2.4041473-1.2308683-5.2191699-1.3778177-7.738408-.4039593s-4.5034705 2.9760493-5.454592 5.5039593c-2.312-7.73-2.173-7.223-2.538-8.635-.2957919-1.8766786.2442772-3.7888291 1.4781448-5.2334695 1.2338676-1.4446405 3.0380096-2.2771462 4.9378552-2.2785305zm-40.5 27c-1.65685425 0-3-1.3431458-3-3v-1.829l5-14.171c.9434412 1.2600242 2.4259159 2.0012615 4 2h26.7c3.935 13.061 3.592 12.2 4.179 13.47.6424099 1.3840808 1.6065687 2.5944224 2.812 3.53zm45.5 0c-3.7802803.0036663-6.9724112-2.8066614-7.4477472-6.5569398s1.914718-7.2681305 5.5763746-8.2077064c3.6616567-.9395759 7.4502432.9928459 8.8393726 4.5086462.907815 2.3081748.6171127 4.9157536-.7767429 6.9673299-1.3938557 2.0515763-3.710983 3.2823873-6.1912571 3.2886701z"></path><path id="Shape" d="m9 22c0 2.119 8 6 13.6 6 2.3196925.1164967 4.6278342-.3951569 6.681-1.481 1.0560708.6420557 2.3819292.6420557 3.438 0 2.0531658 1.0858431 4.3613075 1.5974967 6.681 1.481 5.6 0 13.6-3.881 13.6-6 0-1.673-4.847-4.232-9.068-5.349 2.051-3.572 3.893-8.961 2.635-10.218s-6.647.584-10.219 2.635c-1.119-4.227-3.676-9.068-5.348-9.068s-4.232 4.847-5.349 9.068c-3.572-2.051-8.962-3.892-10.218-2.635s.584 6.646 2.636 10.219c-4.228 1.119-9.069 3.676-9.069 5.348zm22-7.571c2.939 4.605 2.342 10.571 0 10.571s-2.957-5.938 0-10.571zm8.4 11.571c-1.8137274.0760584-3.6206455-.2660962-5.281-1 .8988985-1.9677809 1.1258868-4.176524.646-6.286 2.3836505-.8046606 4.9404681-.9501227 7.4-.421 3.1084404.5930206 6.0497268 1.8582037 8.618 3.707-3.3404788 2.3814937-7.2870703 3.7683307-11.383 4zm2.47-9.786c-1.6651751-.271442-3.3615522-.2926762-5.033-.063.2390156-1.6644354.2184377-3.355872-.061-5.014 2.4977626-1.59746373 5.2968711-2.66516842 8.224-3.137-.4710094 2.9231366-1.5362713 5.7186831-3.13 8.214zm-10.87-13.993c1.8374402 2.57761644 3.1023934 5.5183769 3.71 8.625.3785732 1.9044235.3887567 3.8637442.03 5.772-.164.05-.336.094-.492.149-.813-2.492-2.141-4.767-3.248-4.767s-2.433 2.271-3.246 4.761c-.157-.056-.33-.1-.5-.147-.1781528-.9945894-.2631874-2.0036228-.254-3.014.2137794-4.09825391 1.6023627-8.04842619 4-11.379zm-5.776 8.916c-.2795022 1.6581222-.3000802 3.3495688-.061 5.014-1.6715495-.2275618-3.3675634-.2066691-5.033.062-1.5936781-2.4949781-2.6589414-5.2901881-3.13-8.213 2.9270475.47213473 5.7260962 1.53981658 8.224 3.137zm-5.376 7.153c2.4555379-.5255775 5.0071999-.3815544 7.388.417-.4790119 2.1117561-.2524402 4.3223232.645 6.293-1.6603545.7339038-3.4672726 1.0760584-5.281 1-4.0959297-.2316693-8.0425212-1.6185063-11.383-4 2.5722022-1.8509683 5.5179798-3.1171988 8.631-3.71z"></path><path id="Shape" d="m10 54h-2c-.55228475 0-1 .4477153-1 1s.44771525 1 1 1h2c.5522847 0 1-.4477153 1-1s-.4477153-1-1-1z"></path><path id="Shape" d="m40 54h-26c-.5522847 0-1 .4477153-1 1s.4477153 1 1 1h26c.5522847 0 1-.4477153 1-1s-.4477153-1-1-1z"></path></g></svg>