<!--?xml version="1.0" encoding="iso-8859-1"?-->
<!-- Generator: Adobe Illustrator 19.0.0, SVG Export Plug-In . SVG Version: 6.00 Build 0)  -->
<svg fill="#01A5C0" version="1.1" id="Layer_1" xmlns="http://www.w3.org/2000/svg" xmlns:xlink="http://www.w3.org/1999/xlink" x="0px" y="0px" viewBox="0 0 512 512" style="enable-background:new 0 0 512 512;" xml:space="preserve">
<g>
	<g>
		<path d="M484.332,390.371c-6.429-6.427-14.974-9.966-24.067-9.966c-0.004,0-0.01,0-0.013,0h-0.79
			c-8.68,0.003-16.377,4.285-21.097,10.845l-50.663-50.663l-10.31-77.326c-4.545-34.084-33.903-59.788-68.313-59.788
			c-9.452,0-17.14,7.689-17.14,17.14v17.693c0,19.816-16.122,35.94-35.94,35.94c-19.817,0-35.94-16.123-35.94-35.94v-17.693
			c0-9.452-7.689-17.14-17.164-17.14c-34.387,0-63.745,25.704-68.288,59.788l-10.311,77.326l-50.65,50.65
			c-0.819-1.136-1.735-2.214-2.745-3.224c-4.908-4.907-11.431-7.608-18.378-7.608c-0.001,0-0.004,0-0.005,0
			c-19.204,0.004-34.826,15.631-34.826,34.834c0,18.859,15.068,34.255,33.796,34.807c-4.563,6.414-7.256,14.244-7.256,22.696
			C44.233,494.39,61.844,512,83.49,512H428.51c21.647,0,39.257-17.61,39.257-39.257c0-8.452-2.694-16.281-7.255-22.695
			c18.726-0.546,33.795-16.004,33.795-34.939v-0.666C494.307,405.349,490.765,396.8,484.332,390.371z M327.677,359.11l2.86-24.307
			l2.645,13.225c2.383,11.92,8.188,22.764,16.784,31.361l54.097,54.097h-61.967l-12.98-51.923
			C327.274,374.2,326.79,366.646,327.677,359.11z M202.92,220.06c0.305,0,0.553,0.248,0.553,0.553v17.693
			c0,28.963,23.564,52.527,52.527,52.527s52.527-23.564,52.527-52.527v-17.693c0-0.305,0.249-0.553,0.576-0.553
			c6.24,0,12.258,1.126,17.857,3.177l-15.757,133.934c-1.124,9.538-0.511,19.099,1.819,28.414l11.975,47.9H187.003l11.975-47.9
			c2.329-9.317,2.942-18.877,1.82-28.414l-15.757-133.931C190.645,221.187,196.67,220.06,202.92,220.06z M181.464,334.802
			l2.86,24.307c0.887,7.537,0.403,15.091-1.438,22.454l-12.981,51.923h-61.969l54.097-54.097c8.596-8.596,14.4-19.44,16.784-31.361
			L181.464,334.802z M52.527,433.486c-10.061,0-18.246-8.185-18.246-18.246c0-10.059,8.183-18.244,18.247-18.246
			c2.51,0,4.87,0.976,6.645,2.751c1.776,1.775,2.754,4.135,2.754,6.648c0,3.355,2.02,6.378,5.12,7.662
			c3.1,1.284,6.667,0.575,9.038-1.798l61.927-61.927c1.288-1.288,2.117-2.964,2.357-4.768l10.681-80.109
			c1.781-13.361,8.592-25.015,18.352-33.174l5.796,49.267l-12.645,63.228c-1.739,8.698-5.975,16.612-12.247,22.885l-65.826,65.826
			H83.49H52.527z M221.166,495.413H83.49c-12.5,0-22.67-10.169-22.67-22.67s10.169-22.67,22.67-22.67h58.056v4.053
			c0,12.274,8.368,22.706,20.349,25.368l59.27,13.172V495.413z M221.166,475.673l-55.672-12.372c-4.334-0.963-7.36-4.736-7.36-9.176
			v-4.052h63.032V475.673z M428.51,495.413H237.754v-45.339h190.757c12.499,0.001,22.668,10.17,22.668,22.67
			C451.179,485.243,441.01,495.413,428.51,495.413z M477.719,415.109c0,10.133-8.178,18.377-18.229,18.377h-31.968l-65.826-65.827
			c-6.273-6.273-10.509-14.188-12.248-22.885l-12.646-63.229l5.796-49.267c9.759,8.159,16.571,19.814,18.352,33.176l10.681,80.109
			c0.241,1.805,1.069,3.48,2.357,4.768l61.927,61.927c2.373,2.372,5.939,3.081,9.039,1.798c3.1-1.284,5.12-4.308,5.12-7.662
			c0-5.182,4.215-9.398,9.398-9.4h0.79c0.002,0,0.004,0,0.007,0c4.66,0,9.042,1.815,12.338,5.109
			c3.296,3.296,5.113,7.68,5.113,12.342V415.109z"></path>
	</g>
</g>
<g>
	<g>
		<path d="M289.863,43.021c0.644-2.665,0.971-5.403,0.971-8.188C290.834,15.627,275.207,0,256,0s-34.834,15.627-34.834,34.834
			c0,2.787,0.332,5.523,0.975,8.185c-26.703,12.708-45.209,39.947-45.209,71.435v8.127c0,4.56,3.682,8.266,8.244,8.294
			c0.539-0.001,3.952-0.001,9.449-0.356v10.476c0,33.842,27.532,61.374,61.374,61.374s61.374-27.532,61.374-61.374v-10.325
			c3.003,0.589,6.137,0.926,9.4,0.926c4.581,0,8.294-3.713,8.294-8.294v-8.847C335.067,82.968,316.563,55.729,289.863,43.021z
			 M256,16.587c10.061,0,18.246,8.185,18.246,18.246c0,0.897-0.084,1.779-0.211,2.653c-5.798-1.359-11.829-2.1-18.035-2.1
			c-6.205,0-12.237,0.741-18.034,2.099c-0.126-0.872-0.212-1.754-0.212-2.652C237.754,24.773,245.939,16.587,256,16.587z
			 M300.786,140.994c0,24.695-20.091,44.786-44.786,44.786s-44.786-20.091-44.786-44.786v-12.166
			c18.634-2.563,44.641-8.338,69.188-21.365c4.256,4.911,11.227,11.8,20.385,16.962V140.994z M289.428,92.141
			c-2.449-3.651-7.321-4.759-11.108-2.521c-31.646,18.701-68.642,23.225-84.798,24.318c0.28-34.214,28.199-61.964,62.478-61.964
			c34.27,0,62.184,27.735,62.477,61.938C301.246,109.383,289.563,92.339,289.428,92.141z"></path>
	</g>
</g>
<g>
</g>
<g>
</g>
<g>
</g>
<g>
</g>
<g>
</g>
<g>
</g>
<g>
</g>
<g>
</g>
<g>
</g>
<g>
</g>
<g>
</g>
<g>
</g>
<g>
</g>
<g>
</g>
<g>
</g>
</svg>
