<svg fill="#01A5C0" id="Layer_1" enable-background="new 0 0 512 512" height="512" viewBox="0 0 512 512" width="512" xmlns="http://www.w3.org/2000/svg"><path d="m504.5 497h-291.274c-2.355-7.52-8.191-13.626-15.986-16.179l-25.175-8.247 1.296-3.722c.012-.034.018-.068.029-.102.072-.217.135-.438.188-.665.01-.044.024-.088.034-.132.003-.014.008-.028.011-.042l36.959-177.931c32.473-11.899 60.592-23.911 81.936-52.867 5.754-7.806-6.319-16.704-12.074-8.9-4.028 5.464-8.53 10.575-13.397 15.306-12.116-12.386-24.232-24.771-36.347-37.157 6.384-7.383 11.596-15.817 15.038-24.964 18.82 2.114 32.203-19.599 21.546-35.474 9.095 2.075 18.895 1.374 27.573-2.047 8.295 16.244 6.619 37.85 1.125 54.601-2.941 8.964 11.208 13.956 14.252 4.675 3.114-9.493 4.829-19.195 5.138-28.734l155.566-118.23c3.382-3.11 3.858-6.616 1.429-10.516-12.766-16.76-36.807-20.005-53.587-7.236l-95.7 72.699c.798-3.467 1.213-7.047 1.199-10.694l-.102-23.735c5.349-5.637 7.231-13.756 6.453-21.327-2.674-25.994-27.535-39.682-50.712-39.768-1.888-.009-3.772.097-5.653.316-6.292-9.828-17.187-15.928-29.135-15.928-9.035 0-18.183 3.799-24.554 10.207-16.804 16.901-11.201 46.424 10.579 55.97l.069 34.616c.023 6.195 1.289 12.41 3.725 18.107l-107.515-85.233c-8.082-6.498-18.326-9.389-28.523-8.166l-6.859-9.158c-8.529-11.388-26.852-4.95-26.852 8.936v85.721c0 9.697 15 9.697 15 0v-33.016h10.424l16.817 92.396c.29 1.592 1.087 3.048 2.273 4.15l57.482 53.422c-12.448 4.357-23.835 12.107-29.837 24.217l-49.014-55.473c-5.252-5.944-8.145-13.587-8.145-21.52v-28.176c0-9.697-15-9.697-15 0v28.176c0 11.594 4.228 22.764 11.904 31.451l55.318 62.607c-.666 5.087-.794 10.221-.695 15.212v204.317c-.063 2.863.409 5.638 1.331 8.236h-125.558c-4.142 0-7.5 3.358-7.5 7.5s3.358 7.5 7.5 7.5h199.36.014 297.626c4.143 0 7.5-3.358 7.5-7.5s-3.357-7.499-7.5-7.499zm-311.929-1.924c1.272.417 2.413 1.071 3.381 1.905l-41.857-.072c-1.994-.003-3.846-.781-5.214-2.189-1.448-1.49-2.213-3.501-2.155-5.665.001-.066.002-.133.002-.2v-15c3.001.005 6.002.009 9.003.014-1.182 3.997-.288 9.044 4.404 10.581zm33.507-226.498-23.838-39.568c5.443-2.97 11.642-6.937 17.78-12.113l35.615 36.408c-8.608 6.342-18.511 11.451-29.557 15.273zm51.754-136.467c-14.322 0-27.294-10.016-30.701-23.959 16.569-12.488 32.672-23.049 54.416-23.049 2.836 0 5.372-.258 7.662-.69l.069 16.088c.064 17.14-14.397 31.547-31.446 31.61zm150.026-81.733c8.111-6.173 19.007-6.197 27.031-.833l-140.664 106.905c-.074-.45-.14-.903-.221-1.352-1.006-5.565-2.463-10.546-4.339-14.934zm-148.123-19.767h.126c16.476.061 34.078 9.116 35.846 26.303.995 9.673-6.381 13.186-14.824 13.186-20.227 0-38.721 7.622-54.54 19.862-.076-9.638-.294-19.287-.055-28.918 1.573-17.053 15.981-30.433 33.447-30.433zm-54.207 4.015c-.02-5.22 1.999-10.137 5.685-13.843 7.36-7.403 19.895-7.599 27.46-.368-12.131 5.855-21.471 16.609-25.442 29.7-4.725-3.59-7.679-9.238-7.703-15.489zm27.783 117.972c7.908 6.441-2.062 18.599-10.007 12.141l-134.681-107.018c.161-5.699.183-11.677-1.401-17.191 3.916.645 7.654 2.286 10.854 4.859zm-173.109-89.614.003-37.439 9.253 12.356c2.686 3.586 4.165 8.029 4.165 12.508v7.807c0 2.629-2.141 4.768-4.773 4.768zm41.551 102.257-16.582-91.103 126.926 100.855c-8.035 22.54-27.985 38.19-49.674 46.632zm42.859 80.029 23.922-9.941 23.074 38.3-10.102 3.702c-2.435.892-4.236 2.978-4.763 5.517l-36.564 176.029-13.452-.022v-174.483c0-.051 0-.102-.001-.152-.364-17.905 2.51-30.683 17.886-38.95z"></path></svg>